<svg width="48" height="48" viewBox="0 0 48 48" fill="none" xmlns="http://www.w3.org/2000/svg">
<path d="M46.4 20C46.8243 20 47.2313 19.8314 47.5314 19.5314C47.8314 19.2313 48 18.8243 48 18.4C48 17.9757 47.8314 17.5687 47.5314 17.2686C47.2313 16.9686 46.8243 16.8 46.4 16.8H43.2V14.4H46.4C46.8243 14.4 47.2313 14.2314 47.5314 13.9314C47.8314 13.6313 48 13.2243 48 12.8C48 12.3757 47.8314 11.9687 47.5314 11.6686C47.2313 11.3686 46.8243 11.2 46.4 11.2H43.048C42.7353 9.66004 41.976 8.24628 40.8649 7.13514C39.7537 6.02401 38.34 5.2647 36.8 4.952V1.6C36.8 1.17565 36.6314 0.768687 36.3314 0.468629C36.0313 0.168571 35.6243 0 35.2 0C34.7757 0 34.3687 0.168571 34.0686 0.468629C33.7686 0.768687 33.6 1.17565 33.6 1.6V4.8H31.2V1.6C31.2 1.17565 31.0314 0.768687 30.7314 0.468629C30.4313 0.168571 30.0243 0 29.6 0C29.1757 0 28.7687 0.168571 28.4686 0.468629C28.1686 0.768687 28 1.17565 28 1.6V4.8H25.6V1.6C25.6 1.17565 25.4314 0.768687 25.1314 0.468629C24.8313 0.168571 24.4243 0 24 0C23.5757 0 23.1687 0.168571 22.8686 0.468629C22.5686 0.768687 22.4 1.17565 22.4 1.6V4.8H20V1.6C20 1.17565 19.8314 0.768687 19.5314 0.468629C19.2313 0.168571 18.8243 0 18.4 0C17.9757 0 17.5687 0.168571 17.2686 0.468629C16.9686 0.768687 16.8 1.17565 16.8 1.6V4.8H14.4V1.6C14.4 1.17565 14.2314 0.768687 13.9314 0.468629C13.6313 0.168571 13.2243 0 12.8 0C12.3757 0 11.9687 0.168571 11.6686 0.468629C11.3686 0.768687 11.2 1.17565 11.2 1.6V4.952C9.66004 5.2647 8.24628 6.02401 7.13514 7.13514C6.02401 8.24628 5.2647 9.66004 4.952 11.2H1.6C1.17565 11.2 0.768687 11.3686 0.468629 11.6686C0.168571 11.9687 0 12.3757 0 12.8C0 13.2243 0.168571 13.6313 0.468629 13.9314C0.768687 14.2314 1.17565 14.4 1.6 14.4H4.8V16.8H1.6C1.17565 16.8 0.768687 16.9686 0.468629 17.2686C0.168571 17.5687 0 17.9757 0 18.4C0 18.8243 0.168571 19.2313 0.468629 19.5314C0.768687 19.8314 1.17565 20 1.6 20H4.8V22.4H1.6C1.17565 22.4 0.768687 22.5686 0.468629 22.8686C0.168571 23.1687 0 23.5757 0 24C0 24.4243 0.168571 24.8313 0.468629 25.1314C0.768687 25.4314 1.17565 25.6 1.6 25.6H4.8V28H1.6C1.17565 28 0.768687 28.1686 0.468629 28.4686C0.168571 28.7687 0 29.1757 0 29.6C0 30.0243 0.168571 30.4313 0.468629 30.7314C0.768687 31.0314 1.17565 31.2 1.6 31.2H4.8V33.6H1.6C1.17565 33.6 0.768687 33.7686 0.468629 34.0686C0.168571 34.3687 0 34.7757 0 35.2C0 35.6243 0.168571 36.0313 0.468629 36.3314C0.768687 36.6314 1.17565 36.8 1.6 36.8H4.952C5.2647 38.34 6.02401 39.7537 7.13514 40.8649C8.24628 41.976 9.66004 42.7353 11.2 43.048V46.4C11.2 46.8243 11.3686 47.2313 11.6686 47.5314C11.9687 47.8314 12.3757 48 12.8 48C13.2243 48 13.6313 47.8314 13.9314 47.5314C14.2314 47.2313 14.4 46.8243 14.4 46.4V43.2H16.8V46.4C16.8 46.8243 16.9686 47.2313 17.2686 47.5314C17.5687 47.8314 17.9757 48 18.4 48C18.8243 48 19.2313 47.8314 19.5314 47.5314C19.8314 47.2313 20 46.8243 20 46.4V43.2H22.4V46.4C22.4 46.8243 22.5686 47.2313 22.8686 47.5314C23.1687 47.8314 23.5757 48 24 48C24.4243 48 24.8313 47.8314 25.1314 47.5314C25.4314 47.2313 25.6 46.8243 25.6 46.4V43.2H28V46.4C28 46.8243 28.1686 47.2313 28.4686 47.5314C28.7687 47.8314 29.1757 48 29.6 48C30.0243 48 30.4313 47.8314 30.7314 47.5314C31.0314 47.2313 31.2 46.8243 31.2 46.4V43.2H33.6V46.4C33.6 46.8243 33.7686 47.2313 34.0686 47.5314C34.3687 47.8314 34.7757 48 35.2 48C35.6243 48 36.0313 47.8314 36.3314 47.5314C36.6314 47.2313 36.8 46.8243 36.8 46.4V43.048C38.34 42.7353 39.7537 41.976 40.8649 40.8649C41.976 39.7537 42.7353 38.34 43.048 36.8H46.4C46.8243 36.8 47.2313 36.6314 47.5314 36.3314C47.8314 36.0313 48 35.6243 48 35.2C48 34.7757 47.8314 34.3687 47.5314 34.0686C47.2313 33.7686 46.8243 33.6 46.4 33.6H43.2V31.2H46.4C46.8243 31.2 47.2313 31.0314 47.5314 30.7314C47.8314 30.4313 48 30.0243 48 29.6C48 29.1757 47.8314 28.7687 47.5314 28.4686C47.2313 28.1686 46.8243 28 46.4 28H41.6C41.1757 28 40.7687 28.1686 40.4686 28.4686C40.1686 28.7687 40 29.1757 40 29.6V35.256C39.9979 36.5135 39.4974 37.719 38.6082 38.6082C37.719 39.4974 36.5135 39.9979 35.256 40H12.744C11.4865 39.9979 10.281 39.4974 9.39182 38.6082C8.50261 37.719 8.00212 36.5135 8 35.256V12.744C8.00212 11.4865 8.50261 10.281 9.39182 9.39182C10.281 8.50261 11.4865 8.00212 12.744 8H35.256C36.5135 8.00212 37.719 8.50261 38.6082 9.39182C39.4974 10.281 39.9979 11.4865 40 12.744V24C40 24.4243 40.1686 24.8313 40.4686 25.1314C40.7687 25.4314 41.1757 25.6 41.6 25.6H46.4C46.8243 25.6 47.2313 25.4314 47.5314 25.1314C47.8314 24.8313 48 24.4243 48 24C48 23.5757 47.8314 23.1687 47.5314 22.8686C47.2313 22.5686 46.8243 22.4 46.4 22.4H43.2V20H46.4Z" fill="white"/>
<path d="M20.152 25.392H23.216L21.688 21.008L20.152 25.392Z" fill="white"/>
<path d="M35.2 11.2H12.8C12.3757 11.2 11.9687 11.3686 11.6686 11.6686C11.3686 11.9687 11.2 12.3757 11.2 12.8V35.2C11.2 35.6243 11.3686 36.0313 11.6686 36.3314C11.9687 36.6314 12.3757 36.8 12.8 36.8H35.2C35.6243 36.8 36.0313 36.6314 36.3314 36.3314C36.6314 36.0313 36.8 35.6243 36.8 35.2V12.8C36.8 12.3757 36.6314 11.9687 36.3314 11.6686C36.0313 11.3686 35.6243 11.2 35.2 11.2ZM27.632 29.912C27.6002 29.9462 27.5618 29.9737 27.5193 29.9929C27.4767 30.0122 27.4307 30.0227 27.384 30.024H25.144C25.0197 30.0296 24.8967 29.9965 24.7921 29.9291C24.6874 29.8617 24.6063 29.7635 24.56 29.648L23.936 28H19.432L18.808 29.672C18.7627 29.7882 18.6818 29.8871 18.5769 29.9546C18.4721 30.0222 18.3485 30.0548 18.224 30.048H16C15.9532 30.0472 15.9071 30.0368 15.8645 30.0176C15.8218 29.9983 15.7835 29.9706 15.752 29.936C15.7167 29.9051 15.6884 29.8669 15.6691 29.8242C15.6497 29.7814 15.6398 29.7349 15.64 29.688C15.6304 29.6351 15.6304 29.5809 15.64 29.528L19.64 18.496C19.6802 18.3468 19.7706 18.2161 19.8959 18.1257C20.0212 18.0354 20.1738 17.991 20.328 18H23.008C23.1629 17.9921 23.316 18.0368 23.4424 18.1268C23.5687 18.2169 23.6609 18.347 23.704 18.496L27.704 29.528C27.7093 29.5812 27.7093 29.6348 27.704 29.688C27.7064 29.7687 27.681 29.8478 27.632 29.912ZM32.368 29.592C32.3685 29.705 32.3256 29.8138 32.248 29.896C32.2085 29.9366 32.1612 29.9688 32.109 29.9908C32.0567 30.0128 32.0007 30.0241 31.944 30.024H29.48C29.3661 30.0219 29.2574 29.9758 29.1768 29.8952C29.0962 29.8146 29.0501 29.7059 29.048 29.592V18.4C29.0469 18.342 29.0576 18.2844 29.0796 18.2307C29.1017 18.1771 29.1345 18.1285 29.176 18.088C29.2582 18.0105 29.367 17.9675 29.48 17.968H31.944C32.0001 17.9664 32.056 17.9763 32.1083 17.9969C32.1605 18.0175 32.2081 18.0485 32.248 18.088C32.2881 18.1292 32.3194 18.178 32.34 18.2317C32.3607 18.2853 32.3702 18.3426 32.368 18.4V29.592Z" fill="white"/>
</svg>
