<svg width="86" height="83" viewBox="0 0 86 83" fill="none" xmlns="http://www.w3.org/2000/svg">
<path d="M79.2806 34.8861C76.4664 34.8861 74.0523 36.5986 73.0533 39.0198H45.5236V43.9803H73.0533C74.0523 46.4016 76.4664 48.1141 79.2806 48.1141C82.9857 48.1141 86 45.1471 86 41.5001C86 37.8531 82.9857 34.8861 79.2806 34.8861Z" fill="white"/>
<path d="M59.9455 20.194V12.7421C60.7582 12.4197 61.5195 11.9352 62.1772 11.2878C64.7969 8.70903 64.7969 4.51292 62.1772 1.93411C59.5573 -0.644703 55.2944 -0.644703 52.6747 1.93411C51.4056 3.18333 50.7068 4.84428 50.7068 6.61106C50.7068 8.37783 51.4057 10.0386 52.6749 11.288C53.3325 11.9354 54.0937 12.4198 54.9064 12.7421V16.3076L45.5236 18.5841V23.693L59.9455 20.194Z" fill="white"/>
<path d="M65.0753 33.4162L69.7704 28.7945C70.5767 29.1323 71.463 29.3195 72.3931 29.3195C76.0982 29.3195 79.1125 26.3525 79.1125 22.7055C79.1125 19.0585 76.0982 16.0914 72.3931 16.0914C68.6881 16.0914 65.6738 19.0585 65.6738 22.7055C65.6738 23.6209 65.8639 24.4934 66.207 25.2869L62.9877 28.4557H45.5236V33.4162H65.0753Z" fill="white"/>
<path d="M54.906 66.6926V70.2581C54.0933 70.5803 53.332 71.065 52.6744 71.7122C51.4052 72.9614 50.7064 74.6223 50.7064 76.3891C50.7064 78.1559 51.4054 79.8167 52.6744 81.0661C53.9843 82.3555 55.705 83 57.4256 83C59.1463 83 60.8669 82.3553 62.177 81.0659C64.7967 78.4871 64.7967 74.291 62.177 71.7122C61.5194 71.0648 60.7582 70.5803 59.9455 70.2579V62.8062L45.5236 59.3072V64.416L54.906 66.6926Z" fill="white"/>
<path d="M62.9877 54.5446L66.207 57.7134C65.8639 58.5069 65.6738 59.3795 65.6738 60.2948C65.6738 63.9418 68.6881 66.9089 72.3931 66.9089C76.0982 66.9089 79.1125 63.9418 79.1125 60.2948C79.1125 56.6479 76.0982 53.6808 72.3931 53.6808C71.463 53.6808 70.5767 53.868 69.7704 54.2058L65.0753 49.5841H45.5236V54.5446H62.9877Z" fill="white"/>
<path d="M31.0142 2.98425C31.0135 2.98409 31.0128 2.98409 31.012 2.98392V2.98425C25.7919 2.98425 21.5451 7.16449 21.5451 12.3028C21.5451 14.8619 22.5777 17.2484 24.4531 19.0225L20.9609 22.5988C18.4026 20.1784 16.8711 17.0133 16.5656 13.5801C12.538 14.6504 9.565 18.2764 9.565 22.5745V30.9289C9.565 34.8525 12.8081 38.0447 16.7942 38.0447V43.0053C10.0293 43.0053 4.52549 37.5877 4.52549 30.9289V30.1382C1.88192 31.1385 0 33.6628 0 36.6128V46.3874C0 50.2111 3.16028 53.322 7.04507 53.322H9.56483V60.4253C9.56483 64.7236 12.5378 68.3496 16.5654 69.4197C16.871 65.9867 18.4023 62.8214 20.9607 60.401L24.4529 63.9774C22.5777 65.7514 21.5449 68.1379 21.5449 70.6971C21.5449 75.8354 25.7917 80.0156 31.0118 80.0156V80.0161C31.0125 80.0159 31.0133 80.0157 31.014 80.0156C36.2328 80.0156 40.4787 75.8363 40.4787 70.6992V12.3008C40.4789 7.16366 36.2329 2.98425 31.0142 2.98425Z" fill="white"/>
</svg>
