<svg width="56" height="83" viewBox="0 0 56 83" fill="none" xmlns="http://www.w3.org/2000/svg">
<mask id="path-1-outside-1_347_629" maskUnits="userSpaceOnUse" x="0" y="0" width="56" height="83" fill="black">
<rect fill="white" width="56" height="83"/>
<path d="M49.7742 56.6874V9.43749C49.7742 7.19973 48.8566 5.05362 47.2232 3.47128C45.5898 1.88895 43.3745 1 41.0645 1H9.70968C7.39973 1 5.18439 1.88895 3.55101 3.47128C1.91762 5.05362 1 7.19973 1 9.43749V70.1874C1 72.4252 1.91762 74.5713 3.55101 76.1536C5.18439 77.736 7.39973 78.6249 9.70968 78.6249H20.6665L24.2548 81.5949C24.6059 81.8858 25.062 82.0297 25.5226 81.9949C25.9832 81.9601 26.4107 81.7494 26.711 81.4093C27.0113 81.0692 27.1598 80.6274 27.1238 80.1812C27.0879 79.7349 26.8705 79.3208 26.5194 79.0299L16.0677 70.3224C15.8204 70.1218 15.6438 69.8514 15.5626 69.5489C15.4814 69.2464 15.4997 68.9269 15.6148 68.6349C15.6762 68.4443 15.7774 68.268 15.9123 68.117C16.0472 67.966 16.2128 67.8436 16.3987 67.7574C16.5824 67.6645 16.7839 67.609 16.9906 67.5945C17.1974 67.58 17.405 67.6067 17.6006 67.673L24.8297 70.1874C25.0916 70.2711 25.3704 70.2933 25.6429 70.2523C25.9155 70.2112 26.1741 70.108 26.3974 69.9512C26.6349 69.7878 26.8263 69.5694 26.9541 69.3158C27.0819 69.0623 27.142 68.7818 27.129 68.4999V46.5625C27.129 46.1149 27.3126 45.6857 27.6392 45.3692C27.9659 45.0527 28.409 44.875 28.871 44.875C29.333 44.875 29.776 45.0527 30.1027 45.3692C30.4294 45.6857 30.6129 46.1149 30.6129 46.5625V65.1249C30.6129 65.5725 30.7964 66.0017 31.1231 66.3182C31.4498 66.6346 31.8928 66.8124 32.3548 66.8124C32.8168 66.8124 33.2599 66.6346 33.5866 66.3182C33.9132 66.0017 34.0968 65.5725 34.0968 65.1249V58.3749C34.0968 57.9274 34.2803 57.4982 34.607 57.1817C34.9337 56.8652 35.3767 56.6874 35.8387 56.6874C36.3007 56.6874 36.7438 56.8652 37.0704 57.1817C37.3971 57.4982 37.5806 57.9274 37.5806 58.3749V65.1249C37.5806 65.5725 37.7642 66.0017 38.0908 66.3182C38.4175 66.6346 38.8606 66.8124 39.3226 66.8124C39.7846 66.8124 40.2276 66.6346 40.5543 66.3182C40.881 66.0017 41.0645 65.5725 41.0645 65.1249V60.0624C41.0645 59.6149 41.248 59.1857 41.5747 58.8692C41.9014 58.5527 42.3445 58.3749 42.8064 58.3749C43.2684 58.3749 43.7115 58.5527 44.0382 58.8692C44.3649 59.1857 44.5484 59.6149 44.5484 60.0624V65.1249C44.5484 65.5725 44.7319 66.0017 45.0586 66.3182C45.3853 66.6346 45.8283 66.8124 46.2903 66.8124C46.7523 66.8124 47.1954 66.6346 47.5221 66.3182C47.8487 66.0017 48.0323 65.5725 48.0323 65.1249V61.7499C48.0323 61.3024 48.2158 60.8732 48.5425 60.5567C48.8691 60.2402 49.3122 60.0624 49.7742 60.0624C50.2362 60.0624 50.6793 60.2402 51.0059 60.5567C51.3326 60.8732 51.5161 61.3024 51.5161 61.7499V80.3124C51.5161 80.76 51.6996 81.1892 52.0263 81.5057C52.353 81.8221 52.7961 81.9999 53.2581 81.9999C53.7201 81.9999 54.1631 81.8221 54.4898 81.5057C54.8165 81.1892 55 80.76 55 80.3124V61.7499C55 60.4073 54.4494 59.1196 53.4694 58.1702C52.4894 57.2208 51.1602 56.6874 49.7742 56.6874ZM34.0968 4.375V6.06249C34.0968 6.51005 33.9132 6.93927 33.5866 7.25574C33.2599 7.5722 32.8168 7.74999 32.3548 7.74999H18.4194C17.9574 7.74999 17.5143 7.5722 17.1876 7.25574C16.8609 6.93927 16.6774 6.51005 16.6774 6.06249V4.375H34.0968ZM28.871 41.5C27.7928 41.5029 26.742 41.8288 25.8625 42.433C24.9831 43.0373 24.3181 43.8902 23.9587 44.875H16.4684L15.1619 34.75H35.6123L34.3058 44.875H33.7832C33.4238 43.8902 32.7588 43.0373 31.8794 42.433C31 41.8288 29.9491 41.5029 28.871 41.5ZM42.8064 54.9999C41.9065 55.0031 41.0233 55.2359 40.2458 55.6749C39.6121 54.7089 38.6591 53.9794 37.5423 53.6055C36.4256 53.2316 35.211 53.2354 34.0968 53.6162V48.25H35.8387C36.2667 48.2529 36.6808 48.1032 37.0021 47.8293C37.3233 47.5554 37.5293 47.1765 37.5806 46.7649L39.1135 34.75H39.3226C39.7846 34.75 40.2276 34.5722 40.5543 34.2557C40.881 33.9392 41.0645 33.51 41.0645 33.0625C41.0645 32.6149 40.881 32.1857 40.5543 31.8692C40.2276 31.5528 39.7846 31.375 39.3226 31.375H34.9677L30.2645 25.3C29.9873 24.9419 29.5747 24.7052 29.1173 24.6419C28.66 24.5786 28.1954 24.6939 27.8258 24.9625C27.4562 25.231 27.2119 25.6308 27.1465 26.0738C27.0812 26.5169 27.2002 26.9669 27.4774 27.325L30.6129 31.375H20.1613L23.2968 27.325C23.574 26.9669 23.693 26.5169 23.6277 26.0738C23.5623 25.6308 23.318 25.231 22.9484 24.9625C22.7654 24.8295 22.5571 24.7328 22.3355 24.6778C22.1139 24.6228 21.8833 24.6106 21.6569 24.6419C21.1995 24.7052 20.7869 24.9419 20.5097 25.3L15.8065 31.375H11.4516C10.9896 31.375 10.5466 31.5528 10.2199 31.8692C9.8932 32.1857 9.70968 32.6149 9.70968 33.0625C9.70968 33.51 9.8932 33.9392 10.2199 34.2557C10.5466 34.5722 10.9896 34.75 11.4516 34.75H11.6606L13.1935 46.7649C13.2449 47.1765 13.4509 47.5554 13.7721 47.8293C14.0934 48.1032 14.5075 48.2529 14.9355 48.25H23.6452V66.1543L18.6284 64.4668C17.52 64.1085 16.3177 64.1335 15.2262 64.5376C14.1347 64.9416 13.2215 65.6997 12.6422 66.6828C12.063 67.6658 11.8534 68.813 12.0492 69.929C12.245 71.0449 12.8341 72.0606 13.7161 72.803L16.6774 75.2499H9.70968C8.32371 75.2499 6.9945 74.7165 6.01447 73.7671C5.03444 72.8177 4.48387 71.5301 4.48387 70.1874V9.43749C4.48387 8.09483 5.03444 6.80717 6.01447 5.85777C6.9945 4.90837 8.32371 4.375 9.70968 4.375H13.1935V6.06249C13.1935 7.40515 13.7441 8.69282 14.7241 9.64222C15.7042 10.5916 17.0334 11.125 18.4194 11.125H32.3548C33.7408 11.125 35.07 10.5916 36.05 9.64222C37.0301 8.69282 37.5806 7.40515 37.5806 6.06249V4.375H41.0645C42.4505 4.375 43.7797 4.90837 44.7597 5.85777C45.7397 6.80717 46.2903 8.09483 46.2903 9.43749V56.3162C45.3364 55.4762 44.0956 55.0074 42.8064 54.9999Z"/>
</mask>
<path d="M49.7742 56.6874V9.43749C49.7742 7.19973 48.8566 5.05362 47.2232 3.47128C45.5898 1.88895 43.3745 1 41.0645 1H9.70968C7.39973 1 5.18439 1.88895 3.55101 3.47128C1.91762 5.05362 1 7.19973 1 9.43749V70.1874C1 72.4252 1.91762 74.5713 3.55101 76.1536C5.18439 77.736 7.39973 78.6249 9.70968 78.6249H20.6665L24.2548 81.5949C24.6059 81.8858 25.062 82.0297 25.5226 81.9949C25.9832 81.9601 26.4107 81.7494 26.711 81.4093C27.0113 81.0692 27.1598 80.6274 27.1238 80.1812C27.0879 79.7349 26.8705 79.3208 26.5194 79.0299L16.0677 70.3224C15.8204 70.1218 15.6438 69.8514 15.5626 69.5489C15.4814 69.2464 15.4997 68.9269 15.6148 68.6349C15.6762 68.4443 15.7774 68.268 15.9123 68.117C16.0472 67.966 16.2128 67.8436 16.3987 67.7574C16.5824 67.6645 16.7839 67.609 16.9906 67.5945C17.1974 67.58 17.405 67.6067 17.6006 67.673L24.8297 70.1874C25.0916 70.2711 25.3704 70.2933 25.6429 70.2523C25.9155 70.2112 26.1741 70.108 26.3974 69.9512C26.6349 69.7878 26.8263 69.5694 26.9541 69.3158C27.0819 69.0623 27.142 68.7818 27.129 68.4999V46.5625C27.129 46.1149 27.3126 45.6857 27.6392 45.3692C27.9659 45.0527 28.409 44.875 28.871 44.875C29.333 44.875 29.776 45.0527 30.1027 45.3692C30.4294 45.6857 30.6129 46.1149 30.6129 46.5625V65.1249C30.6129 65.5725 30.7964 66.0017 31.1231 66.3182C31.4498 66.6346 31.8928 66.8124 32.3548 66.8124C32.8168 66.8124 33.2599 66.6346 33.5866 66.3182C33.9132 66.0017 34.0968 65.5725 34.0968 65.1249V58.3749C34.0968 57.9274 34.2803 57.4982 34.607 57.1817C34.9337 56.8652 35.3767 56.6874 35.8387 56.6874C36.3007 56.6874 36.7438 56.8652 37.0704 57.1817C37.3971 57.4982 37.5806 57.9274 37.5806 58.3749V65.1249C37.5806 65.5725 37.7642 66.0017 38.0908 66.3182C38.4175 66.6346 38.8606 66.8124 39.3226 66.8124C39.7846 66.8124 40.2276 66.6346 40.5543 66.3182C40.881 66.0017 41.0645 65.5725 41.0645 65.1249V60.0624C41.0645 59.6149 41.248 59.1857 41.5747 58.8692C41.9014 58.5527 42.3445 58.3749 42.8064 58.3749C43.2684 58.3749 43.7115 58.5527 44.0382 58.8692C44.3649 59.1857 44.5484 59.6149 44.5484 60.0624V65.1249C44.5484 65.5725 44.7319 66.0017 45.0586 66.3182C45.3853 66.6346 45.8283 66.8124 46.2903 66.8124C46.7523 66.8124 47.1954 66.6346 47.5221 66.3182C47.8487 66.0017 48.0323 65.5725 48.0323 65.1249V61.7499C48.0323 61.3024 48.2158 60.8732 48.5425 60.5567C48.8691 60.2402 49.3122 60.0624 49.7742 60.0624C50.2362 60.0624 50.6793 60.2402 51.0059 60.5567C51.3326 60.8732 51.5161 61.3024 51.5161 61.7499V80.3124C51.5161 80.76 51.6996 81.1892 52.0263 81.5057C52.353 81.8221 52.7961 81.9999 53.2581 81.9999C53.7201 81.9999 54.1631 81.8221 54.4898 81.5057C54.8165 81.1892 55 80.76 55 80.3124V61.7499C55 60.4073 54.4494 59.1196 53.4694 58.1702C52.4894 57.2208 51.1602 56.6874 49.7742 56.6874ZM34.0968 4.375V6.06249C34.0968 6.51005 33.9132 6.93927 33.5866 7.25574C33.2599 7.5722 32.8168 7.74999 32.3548 7.74999H18.4194C17.9574 7.74999 17.5143 7.5722 17.1876 7.25574C16.8609 6.93927 16.6774 6.51005 16.6774 6.06249V4.375H34.0968ZM28.871 41.5C27.7928 41.5029 26.742 41.8288 25.8625 42.433C24.9831 43.0373 24.3181 43.8902 23.9587 44.875H16.4684L15.1619 34.75H35.6123L34.3058 44.875H33.7832C33.4238 43.8902 32.7588 43.0373 31.8794 42.433C31 41.8288 29.9491 41.5029 28.871 41.5ZM42.8064 54.9999C41.9065 55.0031 41.0233 55.2359 40.2458 55.6749C39.6121 54.7089 38.6591 53.9794 37.5423 53.6055C36.4256 53.2316 35.211 53.2354 34.0968 53.6162V48.25H35.8387C36.2667 48.2529 36.6808 48.1032 37.0021 47.8293C37.3233 47.5554 37.5293 47.1765 37.5806 46.7649L39.1135 34.75H39.3226C39.7846 34.75 40.2276 34.5722 40.5543 34.2557C40.881 33.9392 41.0645 33.51 41.0645 33.0625C41.0645 32.6149 40.881 32.1857 40.5543 31.8692C40.2276 31.5528 39.7846 31.375 39.3226 31.375H34.9677L30.2645 25.3C29.9873 24.9419 29.5747 24.7052 29.1173 24.6419C28.66 24.5786 28.1954 24.6939 27.8258 24.9625C27.4562 25.231 27.2119 25.6308 27.1465 26.0738C27.0812 26.5169 27.2002 26.9669 27.4774 27.325L30.6129 31.375H20.1613L23.2968 27.325C23.574 26.9669 23.693 26.5169 23.6277 26.0738C23.5623 25.6308 23.318 25.231 22.9484 24.9625C22.7654 24.8295 22.5571 24.7328 22.3355 24.6778C22.1139 24.6228 21.8833 24.6106 21.6569 24.6419C21.1995 24.7052 20.7869 24.9419 20.5097 25.3L15.8065 31.375H11.4516C10.9896 31.375 10.5466 31.5528 10.2199 31.8692C9.8932 32.1857 9.70968 32.6149 9.70968 33.0625C9.70968 33.51 9.8932 33.9392 10.2199 34.2557C10.5466 34.5722 10.9896 34.75 11.4516 34.75H11.6606L13.1935 46.7649C13.2449 47.1765 13.4509 47.5554 13.7721 47.8293C14.0934 48.1032 14.5075 48.2529 14.9355 48.25H23.6452V66.1543L18.6284 64.4668C17.52 64.1085 16.3177 64.1335 15.2262 64.5376C14.1347 64.9416 13.2215 65.6997 12.6422 66.6828C12.063 67.6658 11.8534 68.813 12.0492 69.929C12.245 71.0449 12.8341 72.0606 13.7161 72.803L16.6774 75.2499H9.70968C8.32371 75.2499 6.9945 74.7165 6.01447 73.7671C5.03444 72.8177 4.48387 71.5301 4.48387 70.1874V9.43749C4.48387 8.09483 5.03444 6.80717 6.01447 5.85777C6.9945 4.90837 8.32371 4.375 9.70968 4.375H13.1935V6.06249C13.1935 7.40515 13.7441 8.69282 14.7241 9.64222C15.7042 10.5916 17.0334 11.125 18.4194 11.125H32.3548C33.7408 11.125 35.07 10.5916 36.05 9.64222C37.0301 8.69282 37.5806 7.40515 37.5806 6.06249V4.375H41.0645C42.4505 4.375 43.7797 4.90837 44.7597 5.85777C45.7397 6.80717 46.2903 8.09483 46.2903 9.43749V56.3162C45.3364 55.4762 44.0956 55.0074 42.8064 54.9999Z" fill="white"/>
<path d="M49.7742 56.6874V9.43749C49.7742 7.19973 48.8566 5.05362 47.2232 3.47128C45.5898 1.88895 43.3745 1 41.0645 1H9.70968C7.39973 1 5.18439 1.88895 3.55101 3.47128C1.91762 5.05362 1 7.19973 1 9.43749V70.1874C1 72.4252 1.91762 74.5713 3.55101 76.1536C5.18439 77.736 7.39973 78.6249 9.70968 78.6249H20.6665L24.2548 81.5949C24.6059 81.8858 25.062 82.0297 25.5226 81.9949C25.9832 81.9601 26.4107 81.7494 26.711 81.4093C27.0113 81.0692 27.1598 80.6274 27.1238 80.1812C27.0879 79.7349 26.8705 79.3208 26.5194 79.0299L16.0677 70.3224C15.8204 70.1218 15.6438 69.8514 15.5626 69.5489C15.4814 69.2464 15.4997 68.9269 15.6148 68.6349C15.6762 68.4443 15.7774 68.268 15.9123 68.117C16.0472 67.966 16.2128 67.8436 16.3987 67.7574C16.5824 67.6645 16.7839 67.609 16.9906 67.5945C17.1974 67.58 17.405 67.6067 17.6006 67.673L24.8297 70.1874C25.0916 70.2711 25.3704 70.2933 25.6429 70.2523C25.9155 70.2112 26.1741 70.108 26.3974 69.9512C26.6349 69.7878 26.8263 69.5694 26.9541 69.3158C27.0819 69.0623 27.142 68.7818 27.129 68.4999V46.5625C27.129 46.1149 27.3126 45.6857 27.6392 45.3692C27.9659 45.0527 28.409 44.875 28.871 44.875C29.333 44.875 29.776 45.0527 30.1027 45.3692C30.4294 45.6857 30.6129 46.1149 30.6129 46.5625V65.1249C30.6129 65.5725 30.7964 66.0017 31.1231 66.3182C31.4498 66.6346 31.8928 66.8124 32.3548 66.8124C32.8168 66.8124 33.2599 66.6346 33.5866 66.3182C33.9132 66.0017 34.0968 65.5725 34.0968 65.1249V58.3749C34.0968 57.9274 34.2803 57.4982 34.607 57.1817C34.9337 56.8652 35.3767 56.6874 35.8387 56.6874C36.3007 56.6874 36.7438 56.8652 37.0704 57.1817C37.3971 57.4982 37.5806 57.9274 37.5806 58.3749V65.1249C37.5806 65.5725 37.7642 66.0017 38.0908 66.3182C38.4175 66.6346 38.8606 66.8124 39.3226 66.8124C39.7846 66.8124 40.2276 66.6346 40.5543 66.3182C40.881 66.0017 41.0645 65.5725 41.0645 65.1249V60.0624C41.0645 59.6149 41.248 59.1857 41.5747 58.8692C41.9014 58.5527 42.3445 58.3749 42.8064 58.3749C43.2684 58.3749 43.7115 58.5527 44.0382 58.8692C44.3649 59.1857 44.5484 59.6149 44.5484 60.0624V65.1249C44.5484 65.5725 44.7319 66.0017 45.0586 66.3182C45.3853 66.6346 45.8283 66.8124 46.2903 66.8124C46.7523 66.8124 47.1954 66.6346 47.5221 66.3182C47.8487 66.0017 48.0323 65.5725 48.0323 65.1249V61.7499C48.0323 61.3024 48.2158 60.8732 48.5425 60.5567C48.8691 60.2402 49.3122 60.0624 49.7742 60.0624C50.2362 60.0624 50.6793 60.2402 51.0059 60.5567C51.3326 60.8732 51.5161 61.3024 51.5161 61.7499V80.3124C51.5161 80.76 51.6996 81.1892 52.0263 81.5057C52.353 81.8221 52.7961 81.9999 53.2581 81.9999C53.7201 81.9999 54.1631 81.8221 54.4898 81.5057C54.8165 81.1892 55 80.76 55 80.3124V61.7499C55 60.4073 54.4494 59.1196 53.4694 58.1702C52.4894 57.2208 51.1602 56.6874 49.7742 56.6874ZM34.0968 4.375V6.06249C34.0968 6.51005 33.9132 6.93927 33.5866 7.25574C33.2599 7.5722 32.8168 7.74999 32.3548 7.74999H18.4194C17.9574 7.74999 17.5143 7.5722 17.1876 7.25574C16.8609 6.93927 16.6774 6.51005 16.6774 6.06249V4.375H34.0968ZM28.871 41.5C27.7928 41.5029 26.742 41.8288 25.8625 42.433C24.9831 43.0373 24.3181 43.8902 23.9587 44.875H16.4684L15.1619 34.75H35.6123L34.3058 44.875H33.7832C33.4238 43.8902 32.7588 43.0373 31.8794 42.433C31 41.8288 29.9491 41.5029 28.871 41.5ZM42.8064 54.9999C41.9065 55.0031 41.0233 55.2359 40.2458 55.6749C39.6121 54.7089 38.6591 53.9794 37.5423 53.6055C36.4256 53.2316 35.211 53.2354 34.0968 53.6162V48.25H35.8387C36.2667 48.2529 36.6808 48.1032 37.0021 47.8293C37.3233 47.5554 37.5293 47.1765 37.5806 46.7649L39.1135 34.75H39.3226C39.7846 34.75 40.2276 34.5722 40.5543 34.2557C40.881 33.9392 41.0645 33.51 41.0645 33.0625C41.0645 32.6149 40.881 32.1857 40.5543 31.8692C40.2276 31.5528 39.7846 31.375 39.3226 31.375H34.9677L30.2645 25.3C29.9873 24.9419 29.5747 24.7052 29.1173 24.6419C28.66 24.5786 28.1954 24.6939 27.8258 24.9625C27.4562 25.231 27.2119 25.6308 27.1465 26.0738C27.0812 26.5169 27.2002 26.9669 27.4774 27.325L30.6129 31.375H20.1613L23.2968 27.325C23.574 26.9669 23.693 26.5169 23.6277 26.0738C23.5623 25.6308 23.318 25.231 22.9484 24.9625C22.7654 24.8295 22.5571 24.7328 22.3355 24.6778C22.1139 24.6228 21.8833 24.6106 21.6569 24.6419C21.1995 24.7052 20.7869 24.9419 20.5097 25.3L15.8065 31.375H11.4516C10.9896 31.375 10.5466 31.5528 10.2199 31.8692C9.8932 32.1857 9.70968 32.6149 9.70968 33.0625C9.70968 33.51 9.8932 33.9392 10.2199 34.2557C10.5466 34.5722 10.9896 34.75 11.4516 34.75H11.6606L13.1935 46.7649C13.2449 47.1765 13.4509 47.5554 13.7721 47.8293C14.0934 48.1032 14.5075 48.2529 14.9355 48.25H23.6452V66.1543L18.6284 64.4668C17.52 64.1085 16.3177 64.1335 15.2262 64.5376C14.1347 64.9416 13.2215 65.6997 12.6422 66.6828C12.063 67.6658 11.8534 68.813 12.0492 69.929C12.245 71.0449 12.8341 72.0606 13.7161 72.803L16.6774 75.2499H9.70968C8.32371 75.2499 6.9945 74.7165 6.01447 73.7671C5.03444 72.8177 4.48387 71.5301 4.48387 70.1874V9.43749C4.48387 8.09483 5.03444 6.80717 6.01447 5.85777C6.9945 4.90837 8.32371 4.375 9.70968 4.375H13.1935V6.06249C13.1935 7.40515 13.7441 8.69282 14.7241 9.64222C15.7042 10.5916 17.0334 11.125 18.4194 11.125H32.3548C33.7408 11.125 35.07 10.5916 36.05 9.64222C37.0301 8.69282 37.5806 7.40515 37.5806 6.06249V4.375H41.0645C42.4505 4.375 43.7797 4.90837 44.7597 5.85777C45.7397 6.80717 46.2903 8.09483 46.2903 9.43749V56.3162C45.3364 55.4762 44.0956 55.0074 42.8064 54.9999Z" stroke="white" stroke-width="0.4" mask="url(#path-1-outside-1_347_629)"/>
</svg>
