<svg width="48" height="48" viewBox="0 0 48 48" fill="none" xmlns="http://www.w3.org/2000/svg">
<path d="M17.7345 24.6655C17.7345 22.5268 16.0039 20.7961 13.8651 20.7961" stroke="white" stroke-width="3" stroke-miterlimit="10" stroke-linecap="round" stroke-linejoin="round"/>
<path d="M40.6389 24.6655C40.6389 22.5268 42.3696 20.7961 44.5083 20.7961" stroke="white" stroke-width="3" stroke-miterlimit="10" stroke-linecap="round" stroke-linejoin="round"/>
<path d="M40.6389 8.32066C40.6389 10.4594 42.3696 12.1901 44.5083 12.1901" stroke="white" stroke-width="3" stroke-miterlimit="10" stroke-linecap="round" stroke-linejoin="round"/>
<path d="M29.187 8.2602H43.1181C43.9195 8.2602 44.5692 8.90983 44.5692 9.71122V23.2749C44.5692 24.0763 43.9195 24.726 43.1181 24.726H33.2114" stroke="white" stroke-width="3" stroke-miterlimit="10" stroke-linecap="round" stroke-linejoin="round"/>
<path d="M25.1627 24.726H15.256C14.4547 24.726 13.805 24.0763 13.805 23.2749V15.5093" stroke="white" stroke-width="3" stroke-miterlimit="10" stroke-linecap="round" stroke-linejoin="round"/>
<path d="M25.3367 14.4651C26.0669 13.0854 27.517 12.1453 29.1868 12.1453C31.5908 12.1453 33.5398 14.0942 33.5398 16.4983C33.5398 18.9025 31.5908 20.8514 29.1868 20.8514C27.3429 20.8514 25.7667 19.705 25.1322 18.0861" stroke="white" stroke-width="3" stroke-miterlimit="10" stroke-linecap="round" stroke-linejoin="round"/>
<path d="M9.86972 3.43093H22.8377C24.1112 3.43093 25.349 3.85269 26.3575 4.63038L31.0648 8.2602H21.34C20.3147 8.2602 19.4835 9.09137 19.4835 10.1167C19.4835 10.7922 19.8505 11.4143 20.4415 11.7412L25.0426 14.2859C25.9965 14.8134 26.4206 15.9599 26.0396 16.9813C25.6693 17.9742 24.6442 18.5622 23.6002 18.3807L20.3697 17.819C17.3611 17.2958 14.5072 16.1078 12.0161 14.3415H9.86972" stroke="white" stroke-width="3" stroke-miterlimit="10" stroke-linecap="round" stroke-linejoin="round"/>
<path d="M9.86992 16.309H2V2.00002H9.86992V16.309Z" stroke="white" stroke-width="3" stroke-miterlimit="10" stroke-linecap="round" stroke-linejoin="round"/>
<path d="M38.1229 44.9269H20.6025C17.5039 44.9269 14.5322 43.696 12.3412 41.5049L7.48267 36.6464C6.61296 35.7767 6.61627 34.3654 7.4901 33.4998C8.3582 32.6397 9.75824 32.6431 10.6222 33.5073L14.9697 37.8559C16.4267 39.3133 18.4029 40.1321 20.4637 40.1321H25.2948" stroke="white" stroke-width="3" stroke-miterlimit="10" stroke-linecap="round" stroke-linejoin="round"/>
<path d="M30.5745 40.1321H20.8362C19.6136 40.1321 18.6225 39.1409 18.6225 37.9182C18.6225 36.6956 19.6136 35.7044 20.8362 35.7044H26.4827L27.6507 34.318C29.104 32.5928 31.2448 31.5971 33.5006 31.5971C35.1144 31.5971 36.6869 32.1074 37.993 33.0553L38.1231 33.1497" stroke="white" stroke-width="3" stroke-miterlimit="10" stroke-linecap="round" stroke-linejoin="round"/>
<path d="M46.0002 46H38.1303V31.6911H46.0002V46Z" stroke="white" stroke-width="3" stroke-miterlimit="10" stroke-linecap="round" stroke-linejoin="round"/>
</svg>
