<svg width="42" height="41" viewBox="0 0 42 41" fill="none" xmlns="http://www.w3.org/2000/svg">
<path d="M2.56249 40.9998C3.24208 40.9998 3.89381 40.7298 4.37444 40.2493C4.85491 39.7686 5.12498 39.1169 5.12498 38.4374V34.3565C7.07002 33.9978 8.91699 33.2315 10.5446 32.1081L13.4531 34.9972C13.9337 35.4785 14.5859 35.7487 15.2661 35.7487C15.9461 35.7487 16.5984 35.4785 17.0791 34.9972C17.5602 34.5167 17.8304 33.8644 17.8304 33.1844C17.8304 32.5041 17.5602 31.852 17.0791 31.3713L14.1898 28.4821C15.3066 26.8528 16.0662 25.006 16.4191 23.0624H20.4999C21.1795 23.0624 21.8312 22.7924 22.3119 22.3119C22.7923 21.8312 23.0624 21.1795 23.0624 20.4999C23.0624 19.8203 22.7924 19.1686 22.3119 18.688C21.8312 18.2075 21.1795 17.9374 20.4999 17.9374H16.4191C16.0604 15.9924 15.2941 14.1454 14.1707 12.5178L17.0597 9.60934C17.541 9.12866 17.8113 8.47656 17.8113 7.79632C17.8113 7.1163 17.541 6.46399 17.0597 5.98331C16.5793 5.50222 15.9269 5.23196 15.2469 5.23196C14.5667 5.23196 13.9146 5.50223 13.4339 5.98331L10.5446 8.87257C8.91533 7.75586 7.06858 6.99619 5.12498 6.64331V2.56249C5.12498 1.8829 4.85493 1.23117 4.37444 0.750543C3.89376 0.270076 3.24208 0 2.56249 0C1.8829 0 1.23117 0.270055 0.750544 0.750543C0.270077 1.23122 1.03327e-06 1.8829 1.03327e-06 2.56249V7.13653C-0.000833111 8.37459 0.503408 9.55932 1.39656 10.4166C2.04407 11.0593 2.87821 11.481 3.77973 11.6209C5.92704 11.9156 7.89498 12.9778 9.31951 14.6113C10.7443 16.2448 11.529 18.3389 11.529 20.5066C11.529 22.674 10.7443 24.7681 9.31951 26.4014C7.89498 28.0349 5.92704 29.0972 3.77973 29.3919C2.87821 29.532 2.04407 29.9535 1.39656 30.5963C0.506734 31.4505 0.00251014 32.63 1.03327e-06 33.8635V38.4375C1.03327e-06 39.1171 0.270056 39.7688 0.750544 40.2495C1.23122 40.7299 1.8829 41 2.56249 41V40.9998Z" fill="white"/>
<path d="M28.4371 17.9374C29.0846 17.8567 29.6794 17.5391 30.1065 17.0457C30.5335 16.5526 30.7627 15.9184 30.7498 15.2661V11.4799C32.8977 13.4871 34.3644 16.1159 34.9441 18.9976C35.524 21.8798 35.1879 24.8711 33.9834 27.5526C32.7787 30.2344 30.7655 32.4722 28.2258 33.953C27.4189 34.4096 26.916 35.2615 26.9061 36.1887C26.8992 36.7945 27.107 37.3832 27.4929 37.8503C27.8787 38.3174 28.4176 38.6327 29.014 38.7401C29.6102 38.8475 30.2252 38.7403 30.7499 38.4373C34.2416 36.4264 37.013 33.3687 38.6722 29.6966C40.3313 26.0245 40.7943 21.9237 39.9958 17.9742C39.1971 14.0248 37.1774 10.4261 34.2222 7.6869H38.3543C39.0023 7.69336 39.63 7.46147 40.1179 7.0348C40.6059 6.60834 40.9197 6.01733 41 5.37425C41.0707 4.65248 40.8323 3.93451 40.3439 3.39857C39.8553 2.86243 39.1628 2.5584 38.4375 2.56192H30.75C29.3908 2.56192 28.0872 3.1018 27.1261 4.06295C26.1649 5.0241 25.625 6.32766 25.625 7.6869V15.3744C25.6215 16.0997 25.9255 16.7922 26.4617 17.2808C26.9976 17.7692 27.7156 18.0075 28.4374 17.9369L28.4371 17.9374Z" fill="white"/>
<path d="M5.12498 20.4999C5.12498 21.915 3.97763 23.0624 2.56249 23.0624C1.14735 23.0624 0 21.915 0 20.4999C0 19.0847 1.14735 17.9374 2.56249 17.9374C3.97763 17.9374 5.12498 19.0847 5.12498 20.4999Z" fill="white"/>
</svg>
