<svg width="76" height="77" viewBox="0 0 76 77" fill="none" xmlns="http://www.w3.org/2000/svg">
<path fill-rule="evenodd" clip-rule="evenodd" d="M37.1163 49.2442C37.1163 46.6333 36.0912 44.1264 34.2707 42.2784C32.4467 40.434 29.9723 39.3954 27.3953 39.3954H9.72093C7.144 39.3954 4.66958 40.434 2.84558 42.2784C1.02512 44.1264 0 46.6333 0 49.2442V67.1512C0 69.762 1.02512 72.269 2.84558 74.117C4.66958 75.9614 7.144 77 9.72093 77H27.3953C29.9723 77 32.4467 75.9614 34.2707 74.117C36.0912 72.269 37.1163 69.762 37.1163 67.1512V49.2442ZM31.814 49.2442V67.1512C31.814 68.3402 31.3473 69.4755 30.5202 70.3171C29.6895 71.1552 28.5689 71.6279 27.3953 71.6279H9.72093C8.54735 71.6279 7.42679 71.1552 6.59609 70.3171C5.76893 69.4755 5.30233 68.3402 5.30233 67.1512V49.2442C5.30233 48.0552 5.76893 46.9199 6.59609 46.0782C7.42679 45.2402 8.54735 44.7674 9.72093 44.7674H27.3953C28.5689 44.7674 29.6895 45.2402 30.5202 46.0782C31.3473 46.9199 31.814 48.0552 31.814 49.2442Z" fill="white"/>
<path fill-rule="evenodd" clip-rule="evenodd" d="M76 49.2442C76 46.6333 74.9749 44.1264 73.1544 42.2784C71.3304 40.434 68.856 39.3954 66.2791 39.3954H48.6046C46.0277 39.3954 43.5533 40.434 41.7293 42.2784C39.9088 44.1264 38.8837 46.6333 38.8837 49.2442V67.1512C38.8837 69.762 39.9088 72.269 41.7293 74.117C43.5533 75.9614 46.0277 77 48.6046 77H66.2791C68.856 77 71.3304 75.9614 73.1544 74.117C74.9749 72.269 76 69.762 76 67.1512V49.2442ZM65.8266 60.5292C66.6538 60.0528 67.1628 59.1611 67.1628 58.1977C67.1628 57.2343 66.6538 56.3425 65.8266 55.8662L53.4545 48.7034C52.6344 48.2271 51.627 48.2307 50.8104 48.7106C49.9903 49.194 49.4884 50.0787 49.4884 51.0349V65.3605C49.4884 66.3167 49.9903 67.2013 50.8104 67.6848C51.627 68.1647 52.6344 68.1683 53.4545 67.6919L65.8266 60.5292Z" fill="white"/>
<path d="M23.8605 54.6163C25.3247 54.6163 26.5116 53.4137 26.5116 51.9302C26.5116 50.4468 25.3247 49.2442 23.8605 49.2442C22.3963 49.2442 21.2093 50.4468 21.2093 51.9302C21.2093 53.4137 22.3963 54.6163 23.8605 54.6163Z" fill="white"/>
<path fill-rule="evenodd" clip-rule="evenodd" d="M37.1163 9.84884C37.1163 7.238 36.0912 4.73102 34.2707 2.88302C32.4467 1.03861 29.9723 0 27.3953 0H9.72093C7.144 0 4.66958 1.03861 2.84558 2.88302C1.02512 4.73102 0 7.238 0 9.84884V27.7558C0 30.3667 1.02512 32.8736 2.84558 34.7216C4.66958 36.566 7.144 37.6046 9.72093 37.6046H27.3953C29.9723 37.6046 32.4467 36.566 34.2707 34.7216C36.0912 32.8736 37.1163 30.3667 37.1163 27.7558V9.84884ZM22.5101 22.7526C22.5278 22.6344 22.5349 22.5091 22.5349 22.3837V15.2209H23.4186C24.882 15.2209 26.0698 14.0176 26.0698 12.5349C26.0698 11.0522 24.882 9.84884 23.4186 9.84884H19.8837C18.4203 9.84884 17.2326 11.0522 17.2326 12.5349V17.907C14.3057 17.907 11.9302 20.3137 11.9302 23.2791C11.9302 26.2445 14.3057 28.6512 17.2326 28.6512C20.1594 28.6512 22.5349 26.2445 22.5349 23.2791C22.5349 23.1036 22.5278 22.9281 22.5101 22.7526Z" fill="white"/>
<path fill-rule="evenodd" clip-rule="evenodd" d="M15.6737 61.8328L4.74381 47.5967C4.04744 46.6907 2.86326 46.3325 1.79219 46.705C0.721116 47.0774 0 48.0981 0 49.2442L2.65116 73.4186H32.6977L35.3488 68.9419C35.3488 68.2292 35.0696 67.5451 34.5712 67.0437L26.7096 59.0787C25.278 57.6246 23.051 57.3489 21.3118 58.4054L15.6737 61.8328Z" fill="white"/>
<path fill-rule="evenodd" clip-rule="evenodd" d="M76 9.84884C76 7.238 74.9749 4.73102 73.1544 2.88302C71.3304 1.03861 68.856 0 66.2791 0H48.6046C46.0277 0 43.5533 1.03861 41.7293 2.88302C39.9088 4.73102 38.8837 7.238 38.8837 9.84884V27.7558C38.8837 30.3667 39.9088 32.8736 41.7293 34.7216C43.5533 36.566 46.0277 37.6046 48.6046 37.6046H66.2791C68.856 37.6046 71.3304 36.566 73.1544 34.7216C74.9749 32.8736 76 30.3667 76 27.7558V9.84884ZM50.3721 26.8605H64.5116C65.9751 26.8605 67.1628 25.6571 67.1628 24.1744C67.1628 22.6917 65.9751 21.4884 64.5116 21.4884H50.3721C48.9087 21.4884 47.7209 22.6917 47.7209 24.1744C47.7209 25.6571 48.9087 26.8605 50.3721 26.8605ZM50.3721 16.1163H59.2093C60.6727 16.1163 61.8605 14.9129 61.8605 13.4302C61.8605 11.9475 60.6727 10.7442 59.2093 10.7442H50.3721C48.9087 10.7442 47.7209 11.9475 47.7209 13.4302C47.7209 14.9129 48.9087 16.1163 50.3721 16.1163Z" fill="white"/>
</svg>
